<svg width="45" height="45" viewBox="0 0 45 45" fill="none" xmlns="http://www.w3.org/2000/svg">
<path d="M30.9375 5.625C27.675 5.625 24.5438 7.14375 22.5 9.54375C20.4562 7.14375 17.325 5.625 14.0625 5.625C8.2875 5.625 3.75 10.1625 3.75 15.9375C3.75 23.025 10.125 28.8 19.7812 37.575L22.5 40.0312L25.2188 37.5563C34.875 28.8 41.25 23.025 41.25 15.9375C41.25 10.1625 36.7125 5.625 30.9375 5.625ZM22.6875 34.7812L22.5 34.9688L22.3125 34.7812C13.3875 26.7 7.5 21.3562 7.5 15.9375C7.5 12.1875 10.3125 9.375 14.0625 9.375C16.95 9.375 19.7625 11.2313 20.7562 13.8H24.2625C25.2375 11.2313 28.05 9.375 30.9375 9.375C34.6875 9.375 37.5 12.1875 37.5 15.9375C37.5 21.3562 31.6125 26.7 22.6875 34.7812Z" fill="#4A4A4A"/>
</svg>
