<svg width="43" height="43" viewBox="0 0 43 43" fill="none" xmlns="http://www.w3.org/2000/svg">
<path d="M31.25 28.81C29.8883 28.81 28.67 29.3475 27.7383 30.1896L14.9637 22.7542C15.0533 22.3421 15.125 21.93 15.125 21.5C15.125 21.07 15.0533 20.6579 14.9637 20.2458L27.595 12.8821C28.5625 13.7779 29.8346 14.3333 31.25 14.3333C34.2242 14.3333 36.625 11.9325 36.625 8.95833C36.625 5.98417 34.2242 3.58333 31.25 3.58333C28.2758 3.58333 25.875 5.98417 25.875 8.95833C25.875 9.38833 25.9467 9.80042 26.0362 10.2125L13.405 17.5763C12.4375 16.6804 11.1654 16.125 9.75 16.125C6.77583 16.125 4.375 18.5258 4.375 21.5C4.375 24.4742 6.77583 26.875 9.75 26.875C11.1654 26.875 12.4375 26.3196 13.405 25.4237L26.1617 32.8771C26.0721 33.2533 26.0183 33.6475 26.0183 34.0417C26.0183 36.9263 28.3654 39.2733 31.25 39.2733C34.1346 39.2733 36.4817 36.9263 36.4817 34.0417C36.4817 31.1571 34.1346 28.81 31.25 28.81ZM31.25 7.16667C32.2354 7.16667 33.0417 7.97292 33.0417 8.95833C33.0417 9.94375 32.2354 10.75 31.25 10.75C30.2646 10.75 29.4583 9.94375 29.4583 8.95833C29.4583 7.97292 30.2646 7.16667 31.25 7.16667ZM9.75 23.2917C8.76458 23.2917 7.95833 22.4854 7.95833 21.5C7.95833 20.5146 8.76458 19.7083 9.75 19.7083C10.7354 19.7083 11.5417 20.5146 11.5417 21.5C11.5417 22.4854 10.7354 23.2917 9.75 23.2917ZM31.25 35.8692C30.2646 35.8692 29.4583 35.0629 29.4583 34.0775C29.4583 33.0921 30.2646 32.2858 31.25 32.2858C32.2354 32.2858 33.0417 33.0921 33.0417 34.0775C33.0417 35.0629 32.2354 35.8692 31.25 35.8692Z" fill="#4A4A4A"/>
</svg>
